<svg width="64" height="64" viewBox="0 0 128 128" fill="none" xmlns="http://www.w3.org/2000/svg">
  <rect x="10" y="10" width="108" height="108" rx="34" fill="#17392F"/>
  <path d="M30 96V60C30 43.4315 43.4315 30 60 30C76.5685 30 90 43.4315 90 60V96H30Z" fill="#FFF7ED"/>
  <path d="M48 96V70C48 63.3726 53.3726 58 60 58V58C66.6274 58 72 63.3726 72 70V96H48Z" fill="#17392F"/>
  <path d="M76 96V72C76 60.402 85.402 51 97 51V51C108.598 51 118 60.402 118 72V96H76Z" fill="#76C3A0"/>
  <path d="M87 96V79C87 73.4772 91.4772 69 97 69V69C102.523 69 107 73.4772 107 79V96H87Z" fill="#17392F"/>
  <rect x="58" y="22" width="12" height="12" rx="6" fill="#F28A2E"/>
</svg>
