<svg xmlns="http://www.w3.org/2000/svg" width="1024" height="1024" viewBox="0 0 1024 1024">
<g>
<path d="M 413.86 810.10 L 410.50 812.50 L 311.00 812.72 C307.22,812.73 303.58,812.74 300.08,812.75 C215.51,812.94 208.48,812.96 204.78,809.46 C204.29,808.99 203.86,808.47 203.32,807.88 C197.03,801.03 197.83,790.96 205.30,783.16 C207.06,781.32 211.62,778.24 215.44,776.30 C223.28,772.33 232.63,763.61 235.88,757.24 C236.37,756.27 236.82,755.45 237.22,754.62 C240.98,746.85 240.98,737.28 240.98,583.58 C240.98,577.26 240.98,570.70 240.99,563.89 C240.99,449.32 241.35,385.38 242.01,381.89 C242.56,378.92 244.83,372.72 247.04,368.09 C250.26,361.36 252.70,358.05 259.28,351.48 C266.10,344.67 269.12,342.49 277.00,338.70 C289.93,332.47 296.26,330.93 311.50,330.30 C336.38,329.28 355.19,335.62 369.59,349.90 C380.42,360.64 385.49,372.37 387.07,390.36 C389.69,420.34 391.27,428.57 397.05,442.47 C401.81,453.90 409.17,464.42 419.88,475.09 C434.99,490.15 449.30,498.83 471.02,506.09 C536.96,528.13 611.54,494.36 631.32,433.50 C634.66,423.21 636.69,411.75 638.03,395.50 C639.80,374.00 645.32,361.48 658.42,349.23 C673.08,335.51 691.91,329.24 715.27,330.28 C729.53,330.91 736.31,332.55 748.00,338.19 C759.50,343.73 770.42,354.44 775.45,365.11 C776.40,367.12 777.21,368.59 777.90,370.11 C782.03,379.18 782.03,390.14 782.00,527.21 C782.00,538.30 782.00,550.20 782.00,563.00 C782.00,570.43 782.00,577.56 782.00,584.40 C781.99,737.73 781.99,746.89 785.60,754.29 C785.99,755.09 786.42,755.87 786.90,756.81 C790.18,763.24 798.16,770.14 809.16,776.07 C822.65,783.34 825.50,787.00 825.50,797.01 C825.50,804.86 823.66,808.32 817.93,811.26 C814.72,812.90 808.22,813.00 714.82,812.76 C615.91,812.50 615.12,812.48 612.38,810.44 C608.24,807.34 606.13,803.97 605.40,799.27 C605.36,799.02 605.33,798.78 605.29,798.56 C605.06,797.16 604.92,796.26 605.26,795.61 C605.97,794.31 608.72,794.10 617.00,793.15 C629.83,791.67 638.13,788.76 641.97,784.38 C647.52,778.06 646.30,774.72 633.06,759.97 C621.94,747.58 616.60,740.01 611.56,729.50 C603.01,711.64 601.45,702.10 599.99,658.50 C599.35,639.27 598.24,620.96 597.44,616.34 C593.83,595.57 584.63,578.54 568.96,563.63 C558.94,554.09 547.02,547.28 534.27,543.82 C523.69,540.94 502.69,540.73 492.50,543.40 C462.20,551.34 439.00,574.94 429.49,607.50 C426.54,617.61 425.61,629.09 424.10,674.00 C423.32,697.32 422.91,701.65 420.70,710.12 C415.89,728.49 406.65,744.57 391.73,760.50 C382.87,769.97 380.00,774.32 380.00,778.32 C380.00,781.63 383.39,785.65 388.28,788.14 C393.15,790.63 408.57,793.97 415.25,793.99 L 420.00 794.00 L 420.00 797.53 C420.00,802.66 417.71,807.36 413.86,810.10 ZM 329.95 317.89 C304.50,323.56 278.24,315.02 259.77,295.07 C247.21,281.50 240.99,265.40 241.01,246.52 C241.03,233.29 242.70,225.57 247.96,214.34 C257.32,194.38 274.91,179.91 296.50,174.42 C305.96,172.02 324.12,172.02 333.00,174.42 C358.75,181.38 377.65,200.29 385.05,226.50 C389.64,242.74 387.67,262.70 379.95,278.26 C370.27,297.77 350.72,313.27 329.95,317.89 ZM 720.62 318.92 C708.13,320.66 699.76,319.72 687.34,315.18 C664.49,306.85 648.30,289.70 640.85,265.97 C637.50,255.32 637.51,236.84 640.86,226.00 C645.00,212.66 650.50,203.43 659.96,193.97 C676.56,177.39 698.14,169.96 721.14,172.91 C749.05,176.49 771.45,195.12 780.76,222.50 C788.65,245.68 784.45,270.06 768.95,291.00 C758.07,305.71 739.83,316.25 720.62,318.92 Z" fill="rgb(1,82,45)"/>
<path d="M 524.67 822.03 C519.07,824.50 511.11,825.32 505.73,823.97 C493.70,820.95 483.97,810.35 482.35,798.50 L 481.73 794.00 L 543.00 794.00 L 543.00 797.25 C543.00,801.86 537.93,811.84 533.37,816.20 C531.24,818.24 527.33,820.86 524.67,822.03 Z" fill="rgb(249,124,23)"/>
<path d="M 0.00 512.00 L 0.00 0.00 L 512.00 0.00 L 1024.00 0.00 L 1024.00 512.00 L 1024.00 1024.00 L 512.00 1024.00 L 0.00 1024.00 L 0.00 512.00 ZM 524.67 822.03 C527.33,820.86 531.24,818.24 533.37,816.20 C537.93,811.84 543.00,801.86 543.00,797.25 L 543.00 794.00 L 512.36 794.00 L 481.73 794.00 L 482.35 798.50 C483.97,810.35 493.70,820.95 505.73,823.97 C511.11,825.32 519.07,824.50 524.67,822.03 ZM 413.86 810.10 C417.71,807.36 420.00,802.66 420.00,797.53 L 420.00 794.00 L 415.25 793.99 C408.57,793.97 393.15,790.63 388.28,788.14 C383.39,785.65 380.00,781.63 380.00,778.32 C380.00,774.32 382.87,769.97 391.73,760.50 C406.65,744.57 415.89,728.49 420.70,710.12 C422.91,701.65 423.32,697.32 424.10,674.00 C425.61,629.09 426.54,617.61 429.49,607.50 C439.00,574.94 462.20,551.34 492.50,543.40 C502.69,540.73 523.69,540.94 534.27,543.82 C547.02,547.28 558.94,554.09 568.96,563.63 C584.63,578.54 593.83,595.57 597.44,616.34 C598.24,620.96 599.35,639.27 599.99,658.50 C601.45,702.10 603.01,711.64 611.56,729.50 C616.60,740.01 621.94,747.58 633.06,759.97 C646.30,774.72 647.52,778.06 641.97,784.38 C638.13,788.76 629.83,791.67 617.00,793.15 C603.99,794.64 604.64,794.30 605.40,799.27 C606.13,803.97 608.24,807.34 612.38,810.44 C615.12,812.48 615.91,812.50 714.82,812.76 C808.22,813.00 814.72,812.90 817.93,811.26 C823.66,808.32 825.50,804.86 825.50,797.01 C825.50,787.00 822.65,783.34 809.16,776.07 C798.16,770.14 790.18,763.24 786.90,756.81 C781.79,746.80 782.00,754.91 782.00,563.00 C782.00,365.38 782.48,380.02 775.45,365.11 C770.42,354.44 759.50,343.73 748.00,338.19 C736.31,332.55 729.53,330.91 715.27,330.28 C691.91,329.24 673.08,335.51 658.42,349.23 C645.32,361.48 639.80,374.00 638.03,395.50 C636.69,411.75 634.66,423.21 631.32,433.50 C611.54,494.36 536.96,528.13 471.02,506.09 C449.30,498.83 434.99,490.15 419.88,475.09 C409.17,464.42 401.81,453.90 397.05,442.47 C391.27,428.57 389.69,420.34 387.07,390.36 C385.49,372.37 380.42,360.64 369.59,349.90 C355.19,335.62 336.38,329.28 311.50,330.30 C296.26,330.93 289.93,332.47 277.00,338.70 C269.12,342.49 266.10,344.67 259.28,351.48 C252.70,358.05 250.26,361.36 247.04,368.09 C244.83,372.72 242.56,378.92 242.01,381.89 C241.35,385.38 240.99,449.32 240.99,563.89 C240.97,754.32 241.17,746.87 235.88,757.24 C232.63,763.61 223.28,772.33 215.44,776.30 C211.62,778.24 207.06,781.32 205.30,783.16 C197.83,790.96 197.03,801.03 203.32,807.88 C208.15,813.14 204.06,812.96 311.00,812.72 L 410.50 812.50 L 413.86 810.10 ZM 329.95 317.89 C350.72,313.27 370.27,297.77 379.95,278.26 C387.67,262.70 389.64,242.74 385.05,226.50 C377.65,200.29 358.75,181.38 333.00,174.42 C324.12,172.02 305.96,172.02 296.50,174.42 C274.91,179.91 257.32,194.38 247.96,214.34 C242.70,225.57 241.03,233.29 241.01,246.52 C240.99,265.40 247.21,281.50 259.77,295.07 C278.24,315.02 304.50,323.56 329.95,317.89 ZM 720.62 318.92 C739.83,316.25 758.07,305.71 768.95,291.00 C784.45,270.06 788.65,245.68 780.76,222.50 C771.45,195.12 749.05,176.49 721.14,172.91 C698.14,169.96 676.56,177.39 659.96,193.97 C650.50,203.43 645.00,212.66 640.86,226.00 C637.51,236.84 637.50,255.32 640.85,265.97 C648.30,289.70 664.49,306.85 687.34,315.18 C699.76,319.72 708.13,320.66 720.62,318.92 Z" fill="rgb(253,253,253)"/>
</g>
</svg>